<?xml version="1.0" encoding="utf-8"?>
<!-- Generator: Adobe Illustrator 16.0.0, SVG Export Plug-In . SVG Version: 6.00 Build 0)  -->
<!DOCTYPE svg PUBLIC "-//W3C//DTD SVG 1.1//EN" "http://www.w3.org/Graphics/SVG/1.1/DTD/svg11.dtd">
<svg version="1.1" id="Laag_1" xmlns="http://www.w3.org/2000/svg" xmlns:xlink="http://www.w3.org/1999/xlink" x="0px" y="0px"
	 width="458.469px" height="215.5px" viewBox="0 0 458.469 215.5" enable-background="new 0 0 458.469 215.5" xml:space="preserve">
<g>
	<path fill="#FFFFFF" stroke="#000000" stroke-width="6" stroke-miterlimit="10" d="M18.75,191.042v-35.5h111.186
		c0.031-9.833,0.818-19.949,2.586-30.083H18.75v-35.5h124.523c4.689-10.414,10.803-20.491,18.613-29.917H18.75v-35.5h187.899
		c18.426-9.603,40.922-17.052,68.226-21.5H3v209.5h134.88c-1.89-6.549-3.58-13.781-4.914-21.5H18.75z"/>
	<path stroke="#000000" stroke-width="6" stroke-miterlimit="10" d="M455.5,3.042H274.875c-27.304,4.448-49.8,11.897-68.226,21.5
		H439.75v35.5H161.887c-7.811,9.426-13.924,19.503-18.613,29.917h164.56v35.5H132.522c-1.768,10.134-2.555,20.25-2.586,30.083
		h49.897v35.5h-46.867c1.333,7.719,3.023,14.951,4.914,21.5H455.5V3.042z"/>
	<path fill="#FFFFFF" d="M161.887,60.042H439.75v-35.5H206.649C187.705,34.416,173.058,46.56,161.887,60.042z"/>
	<path d="M18.75,60.042h143.137c11.171-13.482,25.818-25.626,44.763-35.5H18.75V60.042z"/>
	<path fill="#FFFFFF" d="M366.5,125.459v-35.5H143.273c-5.208,11.567-8.666,23.544-10.751,35.5H366.5z"/>
	<path d="M18.75,125.459h113.772c2.085-11.956,5.543-23.933,10.751-35.5H18.75V125.459z"/>
	<path fill="#FFFFFF" d="M132.967,191.042h141.909v-35.5H129.936C129.896,168.014,131.064,180.027,132.967,191.042z"/>
	<path d="M18.75,191.042h114.217c-1.902-11.015-3.071-23.028-3.031-35.5H18.75V191.042z"/>
</g>
</svg>
